{
  "accessors": [
    {
      "bufferView": 2,
      "componentType": 5126,
      "count": 53616,
      "max": [
        1,
        1.0000001192092896,
        1
      ],
      "min": [
        -1,
        -1,
        -1
      ],
      "type": "VEC3"
    },
    {
      "bufferView": 2,
      "byteOffset": 643392,
      "componentType": 5126,
      "count": 53616,
      "max": [
        1,
        1,
        1
      ],
      "min": [
        -1,
        -1,
        -1
      ],
      "type": "VEC3"
    },
    {
      "bufferView": 1,
      "componentType": 5126,
      "count": 53616,
      "max": [
        1.0000003576278687,
        1
      ],
      "min": [
        0,
        0
      ],
      "type": "VEC2"
    },
    {
      "bufferView": 0,
      "componentType": 5125,
      "count": 81663,
      "max": [
        53615
      ],
      "min": [
        0
      ],
      "type": "SCALAR"
    },
    {
      "bufferView": 2,
      "byteOffset": 1286784,
      "componentType": 5126,
      "count": 11760,
      "max": [
        7.679997444152832,
        1.4681832790374756,
        0.74475342035293579
      ],
      "min": [
        -5.598701000213623,
        -1.8413996696472168,
        -64.964637756347656
      ],
      "type": "VEC3"
    },
    {
      "bufferView": 2,
      "byteOffset": 1427904,
      "componentType": 5126,
      "count": 11760,
      "max": [
        0.99975192546844482,
        0.9999244213104248,
        0.9934239387512207
      ],
      "min": [
        -0.99975204467773438,
        -0.9999244213104248,
        -0.99342495203018188
      ],
      "type": "VEC3"
    },
    {
      "bufferView": 1,
      "byteOffset": 428928,
      "componentType": 5126,
      "count": 11760,
      "max": [
        0.96969681978225708,
        0.4723820686340332
      ],
      "min": [
        0.030303003266453743,
        0
      ],
      "type": "VEC2"
    },
    {
      "bufferView": 0,
      "byteOffset": 326652,
      "componentType": 5125,
      "count": 17640,
      "max": [
        11759
      ],
      "min": [
        0
      ],
      "type": "SCALAR"
    }
  ],
  "asset": {
    "extras": {
      "author": "Abby Crawford (https://sketchfab.com/abbyec)",
      "license": "CC-BY-4.0 (http://creativecommons.org/licenses/by/4.0/)",
      "source": "https://sketchfab.com/3d-models/3december-day-4-board-game-bdfed3dcbb3444c89c93abca285fb2ff",
      "title": "3December Day 4: Board Game"
    },
    "generator": "Sketchfab-9.80.0",
    "version": "2.0"
  },
  "bufferViews": [
    {
      "buffer": 0,
      "byteLength": 397212,
      "byteOffset": 0,
      "name": "floatBufferViews",
      "target": 34963
    },
    {
      "buffer": 0,
      "byteLength": 523008,
      "byteOffset": 397212,
      "byteStride": 8,
      "name": "floatBufferViews",
      "target": 34962
    },
    {
      "buffer": 0,
      "byteLength": 1569024,
      "byteOffset": 920220,
      "byteStride": 12,
      "name": "floatBufferViews",
      "target": 34962
    }
  ],
  "buffers": [
    {
      "byteLength": 2489244,
      "uri": "scene.bin"
    }
  ],
  "materials": [
    {
      "doubleSided": true,
      "emissiveFactor": [
        0,
        0,
        0
      ],
      "name": "Mancala-board",
      "pbrMetallicRoughness": {
        "baseColorFactor": [
          0.0097212173202378474,
          0.43965717384091879,
          0.39675523072562668,
          1
        ],
        "metallicFactor": 0,
        "roughnessFactor": 1
      }
    },
    {
      "doubleSided": true,
      "emissiveFactor": [
        0,
        0,
        0
      ],
      "name": "Mancala-pieces",
      "pbrMetallicRoughness": {
        "baseColorFactor": [
          0.33716361504833037,
          0.2232279573168085,
          0.32777809805654207,
          1
        ],
        "metallicFactor": 0,
        "roughnessFactor": 0
      }
    }
  ],
  "meshes": [
    {
      "primitives": [
        {
          "attributes": {
            "NORMAL": 1,
            "POSITION": 0,
            "TEXCOORD_0": 2
          },
          "indices": 3,
          "material": 0,
          "mode": 4
        }
      ]
    },
    {
      "primitives": [
        {
          "attributes": {
            "NORMAL": 5,
            "POSITION": 4,
            "TEXCOORD_0": 6
          },
          "indices": 7,
          "material": 1,
          "mode": 4
        }
      ]
    }
  ],
  "nodes": [
    {
      "children": [
        1
      ],
      "name": "RootNode (gltf orientation matrix)",
      "rotation": [
        -0.70710678118654746,
        -0,
        -0,
        0.70710678118654757
      ]
    },
    {
      "children": [
        2
      ],
      "name": "RootNode (model correction matrix)"
    },
    {
      "children": [
        3
      ],
      "name": "root"
    },
    {
      "children": [
        4,
        6
      ],
      "matrix": [
        1,
        0,
        0,
        0,
        0,
        2.2204460492503131e-16,
        1,
        0,
        0,
        -1,
        2.2204460492503131e-16,
        0,
        0,
        0,
        0,
        1
      ],
      "name": "GLTF_SceneRootNode"
    },
    {
      "children": [
        5
      ],
      "matrix": [
        3.9927523136138916,
        0,
        0,
        0,
        0,
        0.2644953727722168,
        0,
        0,
        0,
        0,
        1,
        0,
        0,
        0,
        0,
        1
      ],
      "name": "Cube_0"
    },
    {
      "mesh": 0,
      "name": ""
    },
    {
      "children": [
        7
      ],
      "matrix": [

      ],
      "name": "Icosphere.001_1"
    },
    {
      "mesh": 1,
      "name": ""
    }
  ],
  "scene": 0,
  "scenes": [
    {
      "name": "OSG_Scene",
      "nodes": [
        0
      ]
    }
  ]
}

